<svg version="1.1" xmlns="http://www.w3.org/2000/svg" viewBox="-128.00000099999997 -280.6058298992528 256.000002 588.2116597977558" fill="none" stroke="black" stroke-width="0.6%" vector-effect="non-scaling-stroke">
    <path d="M -89.80256 89.80327 A 127 127 0 1 1 -111.45299 118.71879 A 127 127 0 0 1 -89.80256 89.80327 Z" />
    <path d="M -86.26703 93.3388 A 122 122 0 1 0 107.06507 121.11591 A 122 122 0 0 0 -86.26703 93.3388 A 122 122 0 1 1 -107.06507 121.11591 A 122 122 0 0 1 -86.26703 93.3388 Z" />
    <path d="M -79.19596 100.40987 A 112 112 0 1 1 -98.28925 125.91017 A 112 112 0 0 1 -79.19596 100.40987 A 112 112 0 1 0 98.28925 125.91017 A 112 112 0 0 0 -79.19596 100.40987 Z" />
    <path d="M -76.25333 169.68468 A 10 10 0 0 0 -76.25333 189.52698 L -17.78326 197.38909 L -9.92115 255.85916 A 10 10 0 0 0 9.92115 255.85916 L 17.78326 197.38909 L 76.25333 189.52698 A 10 10 0 0 0 76.25333 169.68468 L 17.78326 161.82257 L 9.92115 103.3525 A 10 10 0 0 0 -9.92115 103.3525 L -17.78326 161.82257 L -76.25333 169.68468 Z" />
    <path d="M -70.71068 108.89515 A 100 100 0 1 1 -87.75826 131.66328 A 100 100 0 0 1 -70.71068 108.89515 A 100 100 0 1 1 -87.75826 131.66328 A 100 100 0 0 1 -70.71068 108.89515 Z" />
    <path d="M -31.81981 211.42563 A 5 5 0 1 1 -39.74325 212.56404 A 5 5 0 0 1 -31.81981 211.42563 Z" />
    <path d="M 31.81981 211.42563 A 5 5 0 1 1 30.96743 212.56404 A 5 5 0 0 1 31.81981 211.42563 Z" />
    <path d="M -31.81981 147.78602 A 5 5 0 0 1 -39.74325 141.85336 A 5 5 0 1 1 -31.81981 147.78602 Z" />
    <path d="M 31.81981 147.78602 A 5 5 0 0 1 30.96743 141.85336 A 5 5 0 1 1 31.81981 147.78602 Z" />
    <path d="M -55.15433 124.4515 A 78 78 0 1 1 -68.45144 142.21064 A 78 78 0 0 1 -55.15433 124.4515 Z" />
    <path d="M -70.71068 -250.31651 A 100 100 0 1 1 -87.75826 -227.54838 A 100 100 0 0 1 -70.71068 -250.31651 Z" />
    <path d="M -55.15433 -234.76016 A 78 78 0 1 1 -68.45144 -217.00102 A 78 78 0 0 1 -55.15433 -234.76016 Z" />
</svg>