<svg version="1.1" xmlns="http://www.w3.org/2000/svg" viewBox="-133.000001 -115.11151535400506 266.000002 242.96065681660167" fill="none" stroke="black" stroke-width="0.6%" vector-effect="non-scaling-stroke">
    <path d="M 121.59987 37.35146 A 132 52.54271 360 0 1 132 57.79389 A 132 52.54271 360 0 1 -132 57.79389 A 132 52.54271 360 0 1 -121.59987 37.35146" />
    <path d="M -132 74.30643 A 132 52.54271 180 0 0 132 74.30643" />
    <path d="M -122 57.79389 A 122 48.5622 180 0 0 122 57.79389" />
    <path d="M 100 13.46332 A 122 48.5622 360 0 1 122 41.28135 A 122 48.5622 360 0 1 -122 41.28135 A 122 48.5622 360 0 1 -100 13.46332" />
    <path d="M 100 21.20443 A 112 44.58169 360 0 1 112 41.28135 A 112 44.58169 360 0 1 -112 41.28135 A 112 44.58169 360 0 1 -100 21.20443" />
    <path d="M -100 37.71697 A 112 44.58169 180 0 0 -110.06262 49.53762" />
    <path d="M 110.06262 49.53762 A 112 44.58169 180 0 0 100 37.71697" />
    <path d="M 10.76223 85.65674 L 12.41005 80.77873" />
    <path d="M -12.41005 80.77873 L -10.76223 85.65674" />
    <path d="M 9.92115 85.68779 L 9.92115 80.89005" />
    <path d="M -9.92115 85.68779 L -9.92115 80.89005" />
    <path d="M -100 41.28135 A 100 39.80508 180 0 0 100 41.28135" />
    <path d="M -70.71068 -102.45288 A 100 39.80508 360 0 1 100 -74.30643 L 100 41.28135" />
    <path d="M 100 -74.30643 A 100 39.80508 360 0 1 -100 -74.30643 L -100 41.28135" />
    <path d="M -100 -74.30643 A 100 39.80508 360 0 1 -70.71068 -102.45288" />
    <path d="M -55.15433 -96.26066 A 78 31.04796 360 0 1 78 -74.30643 A 78 31.04796 360 0 1 -78 -74.30643 A 78 31.04796 360 0 1 -55.15433 -96.26066 Z" />
    <path d="M -132 57.79389 L -132 74.30643" />
    <path d="M 132 57.79389 L 132 74.30643" />
    <path d="M -122 41.28135 L -122 57.79389" />
    <path d="M 122 41.28135 L 122 57.79389" />
</svg>