<svg version="1.1" xmlns="http://www.w3.org/2000/svg" viewBox="-101.00000100000001 -31.482286926396984 202.00000200000002 62.964573852793954" fill="none" stroke="black" stroke-width="0.6%" vector-effect="non-scaling-stroke">
    <path d="M -70.71068 -26.78412 A 100 12.62634 360 0 1 100 -17.85594 A 100 12.62634 360 0 1 -100 -17.85594 A 100 12.62634 360 0 1 -70.71068 -26.78412 Z" />
    <path d="M -100 17.85594 A 100 12.62634 180 0 0 100 17.85594" />
    <path d="M -55.15433 -24.81992 A 78 9.84855 360 0 1 78 -17.85594 A 78 9.84855 360 0 1 -78 -17.85594 A 78 9.84855 360 0 1 -55.15433 -24.81992 Z" />
    <path d="M 32.92761 -8.92797 A 78 9.84855 180 0 0 -32.92761 -8.92797" />
    <path d="M -100 -17.85594 L -100 17.85594" />
    <path d="M 100 -17.85594 L 100 17.85594" />
</svg>