<svg version="1.1" xmlns="http://www.w3.org/2000/svg" viewBox="-123.00000100000003 -116.81884936992479 246.00000200000005 242.98705513784037" fill="none" stroke="black" stroke-width="0.6%" vector-effect="non-scaling-stroke">
    <path d="M -122 73.32177 A 122 51.84643 180 0 0 122 73.32177" />
    <path d="M 100 11.03497 A 122 51.84643 360 0 1 122 40.73432 A 122 51.84643 360 0 1 -122 40.73432 A 122 51.84643 360 0 1 -100 11.03497" />
    <path d="M 100 19.29961 A 112 47.59672 360 0 1 112 40.73432 A 112 47.59672 360 0 1 -112 40.73432 A 112 47.59672 360 0 1 -100 19.29961" />
    <path d="M -100 35.59334 A 112 47.59672 180 0 0 -110.34716 48.88118" />
    <path d="M 110.34716 48.88118 A 112 47.59672 180 0 0 100 35.59334" />
    <path d="M 10.33421 88.128 L 11.98038 82.92531" />
    <path d="M -11.98038 82.92531 L -10.33421 88.128" />
    <path d="M 9.92115 88.14394 L 9.92115 83.02173" />
    <path d="M -9.92115 88.14394 L -9.92115 83.02173" />
    <path d="M -100 40.73432 A 100 42.49707 180 0 0 100 40.73432" />
    <path d="M -70.71068 -103.37174 A 100 42.49707 360 0 1 100 -73.32177 L 100 40.73432" />
    <path d="M 100 -73.32177 A 100 42.49707 360 0 1 -100 -73.32177 L -100 40.73432" />
    <path d="M -100 -73.32177 A 100 42.49707 360 0 1 -70.71068 -103.37174" />
    <path d="M -55.15433 -96.76075 A 78 33.14772 360 0 1 78 -73.32177 A 78 33.14772 360 0 1 -78 -73.32177 A 78 33.14772 360 0 1 -55.15433 -96.76075 Z" />
    <path d="M -122 40.73432 L -122 73.32177" />
    <path d="M 122 40.73432 L 122 73.32177" />
</svg>