<svg version="1.1" xmlns="http://www.w3.org/2000/svg" viewBox="-128.000001 -55.951159425668834 256.000002 117.20869787548263" fill="none" stroke="black" stroke-width="0.6%" vector-effect="non-scaling-stroke">
    <path d="M 122 10.71439 A 127 24.95963 360 0 1 127 17.64895 A 127 24.95963 360 0 1 -127 17.64895 A 127 24.95963 360 0 1 -122 10.71439" />
    <path d="M -127 35.2979 A 127 24.95963 180 0 0 127 35.2979" />
    <path d="M -122 17.64895 A 122 23.97697 180 0 0 122 17.64895" />
    <path d="M 100 -13.7348 A 122 23.97697 360 0 1 122 0 A 122 23.97697 360 0 1 -122 0 A 122 23.97697 360 0 1 -100 -13.7348" />
    <path d="M 100 -9.91272 A 112 22.01165 360 0 1 112 0 A 112 22.01165 360 0 1 -112 0 A 112 22.01165 360 0 1 -100 -9.91272" />
    <path d="M -95.15924 6.04068 A 112 22.01165 180 0 0 -102.60563 8.82448" />
    <path d="M 102.60563 8.82448 A 112 22.01165 180 0 0 95.15924 6.04068" />
    <path d="M 17.78326 21.14394 L 40.06444 20.55513" />
    <path d="M 17.37185 21.74526 L 17.78326 21.14394 L 17.78326 19.34" />
    <path d="M -17.78326 21.14394 L -17.37185 21.74526" />
    <path d="M -40.06444 20.55513 L -17.78326 21.14394 L -17.78326 19.34" />
    <path d="M -76.25333 16.12217 L -76.25333 12.71465" />
    <path d="M 76.25333 16.12217 L 76.25333 12.71465" />
    <path d="M 9.92115 21.92512 L 9.92115 19.55629" />
    <path d="M -9.92115 21.92512 L -9.92115 19.55629" />
    <path d="M -100 0 A 100 19.65326 180 0 0 100 0" />
    <path d="M -70.71068 -49.19485 A 100 19.65326 360 0 1 100 -35.2979 L 100 0" />
    <path d="M 100 -35.2979 A 100 19.65326 360 0 1 -100 -35.2979 L -100 0" />
    <path d="M -100 -35.2979 A 100 19.65326 360 0 1 -70.71068 -49.19485" />
    <path d="M -31.81981 -23.90258 A 5 0.98266 360 0 1 -40.35534 -24.59743 A 5 0.98266 360 0 1 -30.35534 -24.59743 A 5 0.98266 360 0 1 -31.81981 -23.90258 Z" />
    <path d="M 31.81981 -23.90258 A 5 0.98266 360 0 1 30.35534 -24.59743 A 5 0.98266 360 0 1 40.35534 -24.59743 A 5 0.98266 360 0 1 31.81981 -23.90258 Z" />
    <path d="M -55.15433 -46.13752 A 78 15.32954 360 0 1 78 -35.2979 A 78 15.32954 360 0 1 -78 -35.2979 A 78 15.32954 360 0 1 -55.15433 -46.13752 Z" />
    <path d="M -55.15433 -28.48857 A 78 15.32954 180 0 0 -63.78021 -26.47343" />
    <path d="M 63.78021 -26.47343 A 78 15.32954 180 0 0 -55.15433 -28.48857" />
    <path d="M -127 17.64895 L -127 35.2979" />
    <path d="M 127 17.64895 L 127 35.2979" />
    <path d="M -122 0 L -122 17.64895" />
    <path d="M 122 0 L 122 17.64895" />
    <path d="M -85 10.35299 L -85 14.33341" />
    <path d="M 85 10.35299 L 85 14.33341" />
</svg>