<svg version="1.1" xmlns="http://www.w3.org/2000/svg" viewBox="-101.00000100000001 -46.27437941650256 202.00000200000002 89.73574734810921" fill="none" stroke="black" stroke-width="0.6%" vector-effect="non-scaling-stroke">
    <path d="M -70.71068 -39.78163 A 100 18.75341 360 0 1 100 -26.52097 A 100 18.75341 360 0 1 -100 -26.52097 A 100 18.75341 360 0 1 -70.71068 -39.78163 Z" />
    <path d="M -100 8.84032 A 100 18.75341 180 0 0 100 8.84032" />
    <path d="M -55.15433 -36.86429 A 78 14.62766 360 0 1 78 -26.52097 A 78 14.62766 360 0 1 -78 -26.52097 A 78 14.62766 360 0 1 -55.15433 -36.86429 Z" />
    <path d="M -55.15433 -19.18364 A 78 14.62766 180 0 0 -62.14369 -17.68065" />
    <path d="M 62.14369 -17.68065 A 78 14.62766 180 0 0 -55.15433 -19.18364" />
    <path d="M 76.25333 28.38152 L 76.25333 20.97282" />
    <path d="M 85 26.52097 A 10 1.87534 0 0 1 76.25333 28.38152" />
    <path d="M 17.78326 29.85594 L 76.25333 28.38152" />
    <path d="M 17.78326 29.85594 L 17.78326 27.29482" />
    <path d="M 9.92115 40.82107 L 9.92115 27.50121" />
    <path d="M 9.92115 40.82107 L 17.78326 29.85594" />
    <path d="M -9.92115 40.82107 L -9.92115 27.50121" />
    <path d="M 9.92115 40.82107 A 10 1.87534 0 0 1 -9.92115 40.82107" />
    <path d="M -17.78326 29.85594 L -17.78326 27.29482" />
    <path d="M -17.78326 29.85594 L -9.92115 40.82107" />
    <path d="M -76.25333 28.38152 L -17.78326 29.85594" />
    <path d="M -76.25333 28.38152 L -76.25333 20.97282" />
    <path d="M -85 26.52097 A 10 1.87534 180 0 0 -76.25333 28.38152" />
    <path d="M -31.81981 -14.80762 A 5 0.93767 360 0 1 -40.35534 -15.47065 A 5 0.93767 360 0 1 -30.35534 -15.47065 A 5 0.93767 360 0 1 -31.81981 -14.80762 Z" />
    <path d="M 31.81981 -14.80762 A 5 0.93767 360 0 1 30.35534 -15.47065 A 5 0.93767 360 0 1 40.35534 -15.47065 A 5 0.93767 360 0 1 31.81981 -14.80762 Z" />
    <path d="M -100 -26.52097 L -100 8.84032" />
    <path d="M 100 -26.52097 L 100 8.84032" />
    <path d="M 85 18.71929 L 85 26.52097" />
    <path d="M -85 18.71929 L -85 26.52097" />
</svg>