<svg version="1.1" xmlns="http://www.w3.org/2000/svg" viewBox="-128.000001 -115.9497834528531 256.000002 242.99968035940663" fill="none" stroke="black" stroke-width="0.6%" vector-effect="non-scaling-stroke">
    <path d="M 122 42.92373 A 127 52.21164 360 0 1 127 57.42975 A 127 52.21164 360 0 1 -127 57.42975 A 127 52.21164 360 0 1 -122 42.92373" />
    <path d="M -127 73.83825 A 127 52.21164 180 0 0 127 73.83825" />
    <path d="M -122 57.42975 A 122 50.15607 180 0 0 122 57.42975" />
    <path d="M 99.56474 12.03584 A 122 50.15607 360 0 1 122 41.02125 A 122 50.15607 360 0 1 -122 41.02125 A 122 50.15607 360 0 1 -99.56474 12.03584" />
    <path d="M 99.28776 19.71476 A 112 46.04492 360 0 1 112 41.02125 A 112 46.04492 360 0 1 -112 41.02125 A 112 46.04492 360 0 1 -99.28776 19.71476" />
    <path d="M -100 36.69388 A 112 46.04492 180 0 0 -110.20778 49.2255" />
    <path d="M 110.20778 49.2255 A 112 46.04492 180 0 0 100 36.69388" />
    <path d="M 10.54819 86.8615 L 12.19518 81.82593" />
    <path d="M -12.19518 81.82593 L -10.54819 86.8615" />
    <path d="M 9.92115 86.88516 L 9.92115 81.92995" />
    <path d="M -9.92115 86.88516 L -9.92115 81.92995" />
    <path d="M -100 41.02125 A 100 41.11153 180 0 0 100 41.02125" />
    <path d="M 97.98854 16.4085 A 100 41.11153 360 0 1 100 24.61275 L 100 41.02125" />
    <path d="M 100 24.61275 A 100 41.11153 360 0 1 -100 24.61275 L -100 41.02125" />
    <path d="M -100 24.61275 A 100 41.11153 360 0 1 -97.98854 16.4085" />
    <path d="M -100 8.20425 A 100 41.11153 180 0 0 100 8.20425" />
    <path d="M -70.71068 -102.90849 A 100 41.11153 360 0 1 100 -73.83825 L 100 8.20425" />
    <path d="M 100 -73.83825 A 100 41.11153 360 0 1 -100 -73.83825 L -100 8.20425" />
    <path d="M -100 -73.83825 A 100 41.11153 360 0 1 -70.71068 -102.90849" />
    <path d="M -55.15433 -96.51304 A 78 32.06699 360 0 1 78 -73.83825 A 78 32.06699 360 0 1 -78 -73.83825 A 78 32.06699 360 0 1 -55.15433 -96.51304 Z" />
    <path d="M -127 57.42975 L -127 73.83825" />
    <path d="M 127 57.42975 L 127 73.83825" />
    <path d="M -122 41.02125 L -122 57.42975" />
    <path d="M 122 41.02125 L 122 57.42975" />
</svg>