<svg version="1.1" xmlns="http://www.w3.org/2000/svg" viewBox="-101.000001 -16.333277574052993 202.000002 32.666555148105985" fill="none" stroke="black" stroke-width="0.6%" vector-effect="non-scaling-stroke">
    <path d="M -70.7105 -13.47299 A 100 6.35145 360 0 1 100 -8.98183 A 100 6.35145 360 0 1 -100 -8.98183 A 100 6.35145 360 0 1 -70.7105 -13.47299 Z" />
    <path d="M -100 8.98183 A 100 6.35145 180 0 0 100 8.98183" />
    <path d="M -55.15419 -12.48494 A 78 4.95413 360 0 1 78 -8.98183 A 78 4.95413 360 0 1 -78 -8.98183 A 78 4.95413 360 0 1 -55.15419 -12.48494 Z" />
    <path d="M -100 -8.98183 L -100 8.98183" />
    <path d="M 100 -8.98183 L 100 8.98183" />
</svg>